<svg width="44" height="43" viewBox="0 0 44 43" fill="none" xmlns="http://www.w3.org/2000/svg">
<path d="M22.6338 36.4717C21.9912 36.4717 21.3691 36.2188 20.7676 35.7129C20.1797 35.1934 19.8857 34.6602 19.8857 34.1133C19.8857 33.4844 20.0156 32.8965 20.2754 32.3496C20.5488 31.7891 20.6787 31.167 20.665 30.4834C20.665 30.2373 20.5557 29.998 20.3369 29.7656C20.1182 29.5332 19.708 29.2051 19.1064 28.7812C18.5186 28.3574 17.6709 27.7285 16.5635 26.8945C15.5244 26.1289 15.0049 25.2402 15.0049 24.2285C15.0049 23.8457 15.0869 23.5176 15.251 23.2441C15.4287 22.957 15.5996 22.6836 15.7637 22.4238C15.9277 22.1641 16.0098 21.8906 16.0098 21.6035C16.0098 21.3438 15.8799 21.0908 15.6201 20.8447C15.3604 20.5986 14.9912 20.2637 14.5127 19.8398L11.5391 17.2559C10.1309 16.0254 9.06445 14.8496 8.33984 13.7285C7.61523 12.6074 7.30762 11.5205 7.41699 10.4678C7.52637 9.45605 8.00488 8.46484 8.85254 7.49414C9.7002 6.52344 10.7939 5.6416 12.1338 4.84863C13.4736 4.05566 14.9775 3.42676 16.6455 2.96191C18.3135 2.4834 20.0225 2.24414 21.7725 2.24414C24.1787 2.24414 26.3184 2.60645 28.1914 3.33105C30.0645 4.05566 31.3633 5.0127 32.0879 6.20215C31.7461 6.89941 31.2539 7.55566 30.6113 8.1709C29.9824 8.77246 29.292 9.32617 28.54 9.83203C27.7881 10.3242 27.0498 10.7617 26.3252 11.1445C25.6006 11.5273 24.9717 11.8486 24.4385 12.1084C24.7119 12.5596 24.9375 12.9766 25.1152 13.3594C25.293 13.7285 25.3818 14.0977 25.3818 14.4668C25.3818 15.0957 25.2109 15.6152 24.8691 16.0254C24.5273 16.4219 24.0283 16.6201 23.3721 16.6201C22.8252 16.6201 22.292 16.4834 21.7725 16.21C21.2666 15.9365 20.7881 15.6631 20.3369 15.3896C19.8994 15.1162 19.5166 14.9795 19.1885 14.9795C18.9014 14.9795 18.6553 15.0547 18.4502 15.2051C18.2451 15.3555 18.1426 15.5742 18.1426 15.8613C18.1426 16.1074 18.2793 16.4219 18.5527 16.8047C18.8262 17.1738 19.168 17.5361 19.5781 17.8916C20.002 18.2471 20.4189 18.5479 20.8291 18.7939C21.2529 19.0264 21.6084 19.1426 21.8955 19.1426C22.292 19.1426 22.7158 19.0264 23.167 18.7939C23.6318 18.5479 24.0762 18.3086 24.5 18.0762C24.9375 17.8301 25.3271 17.707 25.6689 17.707C26.2432 17.707 26.9131 17.9121 27.6787 18.3223C28.4443 18.7324 29.1895 19.252 29.9141 19.8809C30.6387 20.5098 31.2334 21.1592 31.6982 21.8291C32.1631 22.4854 32.3955 23.0664 32.3955 23.5723C32.3955 24.2559 32.1494 25.1377 31.6572 26.2178C31.165 27.2979 30.5225 28.4326 29.7295 29.6221C28.9365 30.7979 28.0889 31.9053 27.1865 32.9443C26.2979 33.9834 25.4434 34.8311 24.623 35.4873C23.8164 36.1436 23.1533 36.4717 22.6338 36.4717ZM21.8545 42.3779C18.9287 42.3779 16.1875 41.8242 13.6309 40.7168C11.0742 39.623 8.8252 38.1055 6.88379 36.1641C4.94238 34.2363 3.41797 31.9941 2.31055 29.4375C1.2168 26.8672 0.669922 24.1191 0.669922 21.1934C0.669922 18.2676 1.2168 15.5264 2.31055 12.9697C3.41797 10.3994 4.94238 8.14355 6.88379 6.20215C8.8252 4.26074 11.0742 2.74316 13.6309 1.64941C16.1875 0.555664 18.9287 0.00878906 21.8545 0.00878906C24.7803 0.00878906 27.5215 0.555664 30.0781 1.64941C32.6484 2.74316 34.9043 4.26074 36.8457 6.20215C38.7871 8.14355 40.3047 10.3994 41.3984 12.9697C42.5059 15.5264 43.0596 18.2676 43.0596 21.1934C43.0596 24.1191 42.5059 26.8672 41.3984 29.4375C40.3047 31.9941 38.7871 34.2363 36.8457 36.1641C34.9043 38.1055 32.6484 39.623 30.0781 40.7168C27.5215 41.8242 24.7803 42.3779 21.8545 42.3779ZM21.8545 39.0967C24.3291 39.0967 26.6465 38.625 28.8066 37.6816C30.9668 36.752 32.8672 35.4736 34.5078 33.8467C36.1484 32.2061 37.4336 30.3057 38.3633 28.1455C39.293 25.9854 39.7578 23.668 39.7578 21.1934C39.7578 18.7188 39.293 16.4014 38.3633 14.2412C37.4336 12.0811 36.1484 10.1807 34.5078 8.54004C32.8672 6.89941 30.9668 5.61426 28.8066 4.68457C26.6465 3.75488 24.3291 3.29004 21.8545 3.29004C19.3936 3.29004 17.083 3.75488 14.9229 4.68457C12.7627 5.61426 10.8555 6.89941 9.20117 8.54004C7.56055 10.1807 6.27539 12.0811 5.3457 14.2412C4.42969 16.4014 3.97168 18.7188 3.97168 21.1934C3.97168 23.668 4.42969 25.9854 5.3457 28.1455C6.27539 30.3057 7.56055 32.2061 9.20117 33.8467C10.8555 35.4736 12.7627 36.752 14.9229 37.6816C17.083 38.625 19.3936 39.0967 21.8545 39.0967Z" fill="white"/>
</svg>
