<svg width="280" height="280" viewBox="0 0 280 280" fill="none" xmlns="http://www.w3.org/2000/svg">
<path d="M138.323 24.5823C139.111 23.3682 140.889 23.3682 141.677 24.5823L145.788 30.9106C146.652 32.2411 145.697 34 144.11 34H135.89C134.303 34 133.348 32.2411 134.212 30.9106L138.323 24.5823Z" fill="white"/>
<path d="M141.677 255.418C140.889 256.632 139.111 256.632 138.323 255.418L134.212 249.089C133.348 247.759 134.303 246 135.89 246L144.11 246C145.697 246 146.652 247.759 145.788 249.089L141.677 255.418Z" fill="white"/>
<path opacity="0.3" d="M255.418 138.323C256.632 139.111 256.632 140.889 255.418 141.677L249.089 145.788C247.759 146.652 246 145.697 246 144.11L246 135.89C246 134.303 247.759 133.348 249.089 134.212L255.418 138.323Z" fill="white"/>
<path opacity="0.3" d="M24.5823 141.677C23.3682 140.889 23.3682 139.111 24.5823 138.323L30.9106 134.212C32.2411 133.348 34 134.303 34 135.89L34 144.11C34 145.697 32.2411 146.652 30.9106 145.788L24.5823 141.677Z" fill="white"/>
<path d="M136.483 15V14.748L136.831 14.652C136.983 14.612 137.087 14.536 137.143 14.424C137.207 14.312 137.239 14.176 137.239 14.016V8.208C137.167 8.056 137.103 7.944 137.047 7.872C136.999 7.792 136.947 7.724 136.891 7.668C136.835 7.612 136.759 7.548 136.663 7.476L136.447 7.32V7.068H138.499L142.483 12.516V8.064C142.483 7.904 142.455 7.764 142.398 7.644C142.351 7.524 142.247 7.444 142.087 7.404L141.727 7.32V7.068H143.515V7.32L143.215 7.404C143.063 7.452 142.967 7.536 142.927 7.656C142.895 7.768 142.879 7.904 142.879 8.064V15.048H142.207L137.635 8.76V14.004C137.635 14.172 137.659 14.312 137.707 14.424C137.755 14.536 137.855 14.612 138.007 14.652L138.331 14.748V15H136.483Z" fill="white"/>
<path d="M139.779 264.796C140.219 264.796 140.667 264.852 141.123 264.964C141.571 265.068 141.947 265.208 142.251 265.384L142.179 267.052L141.831 267.052L141.459 266.224C141.347 265.992 141.231 265.8 141.111 265.648C140.991 265.496 140.831 265.38 140.631 265.3C140.495 265.244 140.367 265.204 140.247 265.18C140.119 265.164 139.979 265.156 139.827 265.156C139.339 265.156 138.955 265.28 138.675 265.528C138.387 265.784 138.243 266.12 138.243 266.536C138.243 266.912 138.343 267.208 138.543 267.424C138.735 267.64 139.047 267.848 139.479 268.048L139.971 268.264C140.643 268.56 141.175 268.904 141.567 269.296C141.951 269.688 142.143 270.208 142.143 270.856C142.143 271.336 142.023 271.744 141.783 272.08C141.535 272.424 141.195 272.688 140.763 272.872C140.331 273.056 139.827 273.148 139.251 273.148C138.827 273.148 138.431 273.092 138.063 272.98C137.687 272.868 137.359 272.716 137.079 272.524L137.163 271.036L137.511 271.036L137.955 271.936C138.083 272.2 138.207 272.388 138.327 272.5C138.439 272.62 138.579 272.696 138.747 272.728C138.843 272.744 138.927 272.756 138.999 272.764C139.063 272.772 139.151 272.776 139.263 272.776C139.655 272.776 139.995 272.66 140.283 272.428C140.563 272.204 140.703 271.892 140.703 271.492C140.703 271.108 140.595 270.796 140.379 270.556C140.163 270.316 139.851 270.104 139.443 269.92L138.903 269.692C138.127 269.356 137.571 268.996 137.235 268.612C136.899 268.236 136.731 267.752 136.731 267.16C136.731 266.456 136.999 265.884 137.535 265.444C138.063 265.012 138.811 264.796 139.779 264.796Z" fill="white"/>
<path opacity="0.3" d="M15.048 142.669L7.98 144.745C7.804 144.801 7.672 144.865 7.584 144.937C7.496 145.009 7.424 145.129 7.368 145.297L7.32 145.441L7.068 145.441L7.068 142.345L7.32 142.345L7.404 142.597C7.46 142.781 7.54 142.901 7.644 142.957C7.748 143.005 7.892 143.005 8.076 142.957L12.996 141.649L8.736 140.221L8.04 140.437C7.872 140.493 7.744 140.549 7.656 140.605C7.56 140.661 7.484 140.753 7.428 140.881L7.32 141.145L7.068 141.145L7.068 138.205L7.32 138.205L7.428 138.541C7.484 138.701 7.564 138.793 7.668 138.817C7.772 138.841 7.912 138.825 8.088 138.769L13.068 137.257L8.16 135.865C7.976 135.809 7.816 135.793 7.68 135.817C7.544 135.841 7.448 135.945 7.392 136.129L7.32 136.369L7.068 136.369L7.068 134.593L7.32 134.593L7.416 134.893C7.472 135.053 7.556 135.169 7.668 135.241C7.772 135.305 7.912 135.361 8.088 135.409L15.048 137.377L15.048 138.205L9.456 139.981L15.048 141.841L15.048 142.669Z" fill="white"/>
<path opacity="0.3" d="M265 137.454L265.252 137.454L265.336 137.694C265.376 137.838 265.444 137.938 265.54 137.994C265.644 138.05 265.784 138.082 265.96 138.09L271.996 138.09C272.164 138.082 272.292 138.054 272.38 138.006C272.476 137.958 272.548 137.858 272.596 137.706L272.68 137.454L272.932 137.454L272.932 143.166L271.012 143.25L271.012 142.914L272.092 142.434C272.244 142.37 272.36 142.298 272.44 142.218C272.528 142.138 272.572 142.018 272.572 141.858L272.572 139.818C272.076 139.81 271.564 139.806 271.036 139.806C270.516 139.806 269.928 139.806 269.272 139.806L269.272 140.994C269.272 141.154 269.312 141.274 269.392 141.354C269.48 141.442 269.596 141.522 269.74 141.594L270.196 141.798L270.196 142.062L267.976 142.062L267.976 141.798L268.432 141.582C268.576 141.518 268.692 141.446 268.78 141.366C268.868 141.286 268.912 141.166 268.912 141.006L268.912 139.806C268.336 139.806 267.84 139.806 267.424 139.806C267.008 139.806 266.636 139.806 266.308 139.806C265.988 139.814 265.672 139.818 265.36 139.818L265.36 142.122C265.36 142.282 265.4 142.406 265.48 142.494C265.568 142.582 265.688 142.654 265.84 142.71L266.92 143.154L266.92 143.49L265 143.406L265 137.454Z" fill="white"/>
</svg>
