<svg width="40" height="45" viewBox="0 0 40 45" fill="none" xmlns="http://www.w3.org/2000/svg">
<path d="M2.17676 27.5664C1.68457 27.5664 1.26074 27.3887 0.905273 27.0332C0.563477 26.6641 0.392578 26.2334 0.392578 25.7412V18.666C0.392578 18.1738 0.563477 17.7432 0.905273 17.374C1.26074 17.0049 1.68457 16.8203 2.17676 16.8203C2.69629 16.8203 3.13379 17.0049 3.48926 17.374C3.84473 17.7432 4.02246 18.1738 4.02246 18.666V25.7412C4.02246 26.2334 3.84473 26.6641 3.48926 27.0332C3.13379 27.3887 2.69629 27.5664 2.17676 27.5664ZM9.25195 36.0977C8.74609 36.0977 8.31543 35.9199 7.95996 35.5645C7.61816 35.209 7.44727 34.7783 7.44727 34.2725V10.1348C7.44727 9.62891 7.61816 9.19824 7.95996 8.84277C8.31543 8.47363 8.74609 8.28906 9.25195 8.28906C9.77148 8.28906 10.2021 8.47363 10.5439 8.84277C10.8994 9.19824 11.0771 9.62891 11.0771 10.1348V34.2725C11.0771 34.7783 10.8994 35.209 10.5439 35.5645C10.2021 35.9199 9.77148 36.0977 9.25195 36.0977ZM16.3066 44.0547C15.8008 44.0547 15.377 43.877 15.0352 43.5215C14.6934 43.1797 14.5225 42.749 14.5225 42.2295V2.17773C14.5225 1.6582 14.6934 1.2207 15.0352 0.865234C15.377 0.509766 15.8008 0.332031 16.3066 0.332031C16.8262 0.332031 17.2637 0.509766 17.6191 0.865234C17.9746 1.2207 18.1523 1.6582 18.1523 2.17773V42.2295C18.1523 42.749 17.9746 43.1797 17.6191 43.5215C17.2637 43.877 16.8262 44.0547 16.3066 44.0547ZM23.3818 33.4316C22.876 33.4316 22.4453 33.2607 22.0898 32.9189C21.748 32.5635 21.5771 32.1328 21.5771 31.627V12.7803C21.5771 12.2744 21.748 11.8437 22.0898 11.4883C22.4453 11.1328 22.876 10.9551 23.3818 10.9551C23.8877 10.9551 24.3184 11.1328 24.6738 11.4883C25.0293 11.8437 25.207 12.2744 25.207 12.7803V31.627C25.207 32.1328 25.0293 32.5635 24.6738 32.9189C24.3184 33.2607 23.8877 33.4316 23.3818 33.4316ZM30.457 39.543C29.9375 39.543 29.5 39.3652 29.1445 39.0098C28.8027 38.6543 28.6318 38.2236 28.6318 37.7178V6.68945C28.6318 6.18359 28.8027 5.75293 29.1445 5.39746C29.5 5.02832 29.9375 4.84375 30.457 4.84375C30.9629 4.84375 31.3867 5.02832 31.7285 5.39746C32.084 5.75293 32.2617 6.18359 32.2617 6.68945V37.7178C32.2617 38.2236 32.084 38.6543 31.7285 39.0098C31.3867 39.3652 30.9629 39.543 30.457 39.543ZM37.5117 29.4326C36.9922 29.4326 36.5615 29.2549 36.2197 28.8994C35.8779 28.5439 35.707 28.1201 35.707 27.6279V16.7793C35.707 16.2871 35.8779 15.8633 36.2197 15.5078C36.5615 15.1387 36.9922 14.9541 37.5117 14.9541C38.0176 14.9541 38.4482 15.1387 38.8037 15.5078C39.1592 15.8633 39.3369 16.2871 39.3369 16.7793V27.6279C39.3369 28.1201 39.1592 28.5439 38.8037 28.8994C38.4482 29.2549 38.0176 29.4326 37.5117 29.4326Z" fill="white"/>
</svg>
