<svg width="44" height="45" viewBox="0 0 44 45" fill="none" xmlns="http://www.w3.org/2000/svg">
<path d="M0.649414 22.9316C0.649414 19.5137 1.14844 16.4102 2.14648 13.6211C3.1582 10.832 4.59375 8.43945 6.45312 6.44336C8.32617 4.43359 10.5615 2.88867 13.1592 1.80859C15.7705 0.728516 18.6758 0.188477 21.875 0.188477C25.0605 0.188477 27.9521 0.728516 30.5498 1.80859C33.1611 2.88867 35.4033 4.43359 37.2764 6.44336C39.1494 8.43945 40.585 10.832 41.583 13.6211C42.5947 16.4102 43.1006 19.5137 43.1006 22.9316C43.1006 25.0234 42.9092 27.1494 42.5264 29.3096C42.1436 31.4561 41.583 33.5615 40.8447 35.626C40.1201 37.6768 39.252 39.5908 38.2402 41.3682C37.9531 41.874 37.543 42.1953 37.0098 42.332C36.4902 42.4824 35.9639 42.4072 35.4307 42.1064C34.9248 41.833 34.6035 41.4297 34.4668 40.8965C34.3438 40.377 34.4326 39.8369 34.7334 39.2764C36.1006 36.8018 37.1533 34.1494 37.8916 31.3193C38.6299 28.4756 38.999 25.6797 38.999 22.9316C38.999 20.1426 38.5889 17.6064 37.7686 15.3232C36.9619 13.0264 35.7998 11.0576 34.2822 9.41699C32.7783 7.7627 30.9736 6.49805 28.8682 5.62305C26.7627 4.73438 24.4316 4.29004 21.875 4.29004C19.3047 4.29004 16.9668 4.73438 14.8613 5.62305C12.7695 6.49805 10.9648 7.7627 9.44727 9.41699C7.94336 11.0576 6.78125 13.0264 5.96094 15.3232C5.1543 17.6064 4.75098 20.1426 4.75098 22.9316C4.75098 25.6797 5.12012 28.4756 5.8584 31.3193C6.59668 34.1494 7.64258 36.8018 8.99609 39.2764C9.29688 39.8369 9.38574 40.377 9.2627 40.8965C9.13965 41.4297 8.81836 41.833 8.29883 42.1064C7.76562 42.4072 7.23242 42.4824 6.69922 42.332C6.17969 42.1953 5.77637 41.874 5.48926 41.3682C4.47754 39.5908 3.60938 37.6768 2.88477 35.626C2.17383 33.5615 1.62012 31.4561 1.22363 29.3096C0.84082 27.1494 0.649414 25.0234 0.649414 22.9316ZM7.56055 40.8145L4.62793 31.1143C4.24512 29.8838 4.30664 28.7764 4.8125 27.792C5.33203 26.8076 6.20703 26.1309 7.4375 25.7617C8.66797 25.4062 9.76855 25.4814 10.7393 25.9873C11.71 26.4932 12.3799 27.3545 12.749 28.5713L15.6816 38.3125C16.0645 39.5293 15.9961 40.623 15.4766 41.5938C14.9707 42.5781 14.1025 43.2617 12.8721 43.6445C11.6416 44.0137 10.541 43.9385 9.57031 43.4189C8.59961 42.8994 7.92969 42.0312 7.56055 40.8145ZM36.1689 40.8145C35.7998 42.0312 35.1299 42.8994 34.1592 43.4189C33.1885 43.9385 32.0879 44.0137 30.8574 43.6445C29.6406 43.2617 28.7725 42.585 28.2529 41.6143C27.7334 40.6436 27.665 39.543 28.0479 38.3125L31.001 28.5713C31.3701 27.3545 32.0332 26.4932 32.9902 25.9873C33.9609 25.4814 35.0615 25.4062 36.292 25.7617C37.5225 26.1309 38.3906 26.8076 38.8965 27.792C39.416 28.7627 39.4844 29.8701 39.1016 31.1143L36.1689 40.8145Z" fill="white"/>
</svg>
