<svg width="76" height="74" viewBox="0 0 76 74" fill="none" xmlns="http://www.w3.org/2000/svg">
<path d="M2.41992 68.1744C2.58506 67.7725 3.04527 67.5799 3.44727 67.7447C9.25625 70.1314 22.21 72.4087 37.333 72.4088C47.2107 72.4088 56.1804 71.7364 62.8447 70.6432C63.2736 70.5729 63.6786 70.8637 63.749 71.2926C63.8193 71.7214 63.5284 72.1264 63.0996 72.1969C56.3302 73.3074 47.2721 73.983 37.333 73.983C22.1196 73.983 8.93167 71.7005 2.84961 69.2017C2.44765 69.0366 2.25504 68.5764 2.41992 68.1744ZM37.7832 54.8883C58.6495 54.8883 75.5653 58.4123 75.5664 62.7594C75.5664 67.1067 58.6502 70.6314 37.7832 70.6314C16.9161 70.6314 0 67.1067 0 62.7594C0.00106267 58.4122 16.9168 54.8883 37.7832 54.8883ZM73.9922 66.901C74.8616 66.901 75.5664 67.6058 75.5664 68.4752C75.5662 69.3445 74.8615 70.0493 73.9922 70.0494C73.1228 70.0494 72.4181 69.3445 72.418 68.4752C72.418 67.6057 73.1227 66.901 73.9922 66.901Z" fill="#242424"/>
<path d="M56.2355 21.2459C56.2355 27.5431 54.6511 38.5632 53.6016 43.2861C55.1759 45.9099 60.9584 53.3616 60.9584 62.1777C48.364 67.2155 24.2247 64.2768 18.4523 62.1777C18.4523 59.0291 21.6009 46.4347 20.0266 38.5632C18.5583 31.2215 14.2438 21.2459 12.6694 14.9487C11.9058 11.8941 11.0952 5.50289 17.3924 3.92859C23.6896 2.35429 28.4125 8.65149 29.9868 16.523C31.2462 22.8202 32.6106 34.8898 33.1354 40.1375C34.1907 39.7857 36.5196 39.4811 39.4579 40.0773C42.0668 33.8202 42.0668 30.6666 42.0668 22.8202C42.0668 13.8664 38.9182 2.35429 46.7897 2.35429C54.6612 2.35429 56.2355 13.3744 56.2355 21.2459Z" fill="white"/>
<path d="M53.8742 21.253C53.8741 17.4107 53.4817 13.0189 52.2486 9.67187C51.0161 6.3265 49.2674 4.72285 46.7897 4.72285C45.5031 4.72286 45.0135 5.13303 44.6967 5.60885C44.2481 6.28264 43.9277 7.4707 43.8351 9.35278C43.7449 11.1846 43.8793 13.3225 44.0528 15.6786C44.2221 17.9771 44.4282 20.4805 44.4282 22.8272C44.4282 29.688 44.4353 33.2722 42.5978 38.5038C43.4476 38.7988 44.3222 39.1621 45.2115 39.6067C46.378 40.19 46.851 41.6086 46.2677 42.7751C45.6845 43.9416 44.2658 44.4144 43.0993 43.8312C41.8208 43.1919 40.597 42.7712 39.4748 42.5056C39.1572 42.5114 38.8332 42.4536 38.5213 42.3232C38.5074 42.3173 38.4939 42.3107 38.4801 42.3047C36.146 41.913 34.4495 42.1958 33.8821 42.385L31.0795 43.3191L30.7856 40.3796C30.2597 35.1207 28.9048 23.1611 27.6713 16.9932C26.9398 13.3359 25.5074 10.2365 23.7199 8.28642C21.9931 6.40275 20.0811 5.69765 17.9651 6.22664C16.7849 6.5217 16.0788 7.0007 15.6296 7.48975C15.1697 7.99036 14.8619 8.63025 14.687 9.40849C14.3204 11.0404 14.6063 12.9673 14.9603 14.3832C15.7143 17.3992 17.1345 21.3257 18.6184 25.5962C20.0711 29.777 21.5715 34.2539 22.3422 38.1073C23.2127 42.4601 22.7629 47.92 22.1715 52.4541C21.8716 54.7537 21.5205 56.9106 21.2533 58.6351C21.1433 59.3451 21.0525 59.9553 20.9824 60.4687C24.326 61.2953 30.4208 62.2009 37.2511 62.502C44.8062 62.8352 52.7755 62.4026 58.5247 60.5507C57.8905 53.2943 53.2409 47.282 51.5766 44.5082L51.0921 43.7004L51.2964 42.781C52.3216 38.1676 53.8742 27.3267 53.8742 21.253ZM58.597 21.253C58.597 27.3702 57.1742 37.6048 56.1116 42.8377C58.0845 45.8431 63.3198 53.4089 63.3198 62.1848V63.7836L61.8354 64.3775C55.0485 67.0922 45.4409 67.5905 37.0432 67.2203C28.6455 66.85 20.8767 65.5793 17.6452 64.4042L16.091 63.8389V62.1848C16.091 61.1723 16.3274 59.5815 16.586 57.9123C16.86 56.1439 17.1978 54.0697 17.4882 51.8433C18.0775 47.3252 18.4147 42.5522 17.711 39.0335C17.0133 35.5452 15.6223 31.3633 14.1571 27.1465C12.7231 23.0196 11.1988 18.8097 10.3785 15.5286C9.96879 13.8898 9.46777 11.0939 10.0791 8.37302C10.3933 6.97484 11.016 5.53063 12.1513 4.29466C13.2973 3.04716 14.8514 2.13692 16.8197 1.64484C21.0009 0.599579 24.5989 2.25594 27.2015 5.09512C29.7432 7.86795 31.4596 11.8529 32.3025 16.0671C33.4126 21.6176 34.5882 31.4595 35.2256 37.4132C36.0449 37.3649 36.9616 37.3761 37.9506 37.4729C39.6971 32.7581 39.7054 29.8241 39.7054 22.8272C39.7054 20.6971 39.5179 18.4037 39.3428 16.0255C39.1719 13.7049 39.0113 11.2859 39.1179 9.12051C39.222 7.00538 39.5906 4.75591 40.7655 2.9914C42.0721 1.02893 44.1406 1.53076e-05 46.7897 0C52.1835 0 55.1578 3.90646 56.6804 8.03901C58.2023 12.1699 58.597 17.2239 58.597 21.253Z" fill="#242424"/>
<circle cx="46.7897" cy="52.7391" r="3.1486" fill="#242424"/>
<circle cx="34.1953" cy="52.7391" r="3.1486" fill="#242424"/>
</svg>
